<mxfile host="app.diagrams.net" modified="2023-02-14T02:06:35.079Z" agent="5.0 (Windows NT 10.0; Win64; x64) AppleWebKit/537.36 (KHTML, like Gecko) Chrome/110.0.0.0 Safari/537.36" etag="9MoBZ96t9D99wyL30twp" version="20.8.20" type="github">
  <diagram name="Page-1" id="kNrGHdFHPGwWsZn7IggV">
    <mxGraphModel dx="794" dy="708" grid="1" gridSize="10" guides="1" tooltips="1" connect="1" arrows="1" fold="1" page="1" pageScale="1" pageWidth="850" pageHeight="1100" math="0" shadow="0">
      <root>
        <mxCell id="0" />
        <mxCell id="1" parent="0" />
        <mxCell id="rDTw__-ummXogN5xWqdT-32" value="" style="rounded=0;whiteSpace=wrap;html=1;" vertex="1" parent="1">
          <mxGeometry x="210" y="355" width="120" height="60" as="geometry" />
        </mxCell>
        <mxCell id="rDTw__-ummXogN5xWqdT-1" value="" style="whiteSpace=wrap;html=1;aspect=fixed;" vertex="1" parent="1">
          <mxGeometry x="340" y="570" width="80" height="80" as="geometry" />
        </mxCell>
        <mxCell id="rDTw__-ummXogN5xWqdT-2" value="Actor" style="shape=umlActor;verticalLabelPosition=bottom;verticalAlign=top;html=1;" vertex="1" parent="1">
          <mxGeometry x="180" y="720" width="30" height="60" as="geometry" />
        </mxCell>
        <mxCell id="rDTw__-ummXogN5xWqdT-3" value="Player interacts with board&lt;br&gt;" style="html=1;verticalAlign=bottom;startArrow=oval;startFill=1;endArrow=block;startSize=8;edgeStyle=elbowEdgeStyle;elbow=vertical;curved=0;rounded=0;exitX=0.5;exitY=0;exitDx=0;exitDy=0;exitPerimeter=0;" edge="1" parent="1" source="rDTw__-ummXogN5xWqdT-2" target="rDTw__-ummXogN5xWqdT-1">
          <mxGeometry width="60" relative="1" as="geometry">
            <mxPoint x="370" y="720" as="sourcePoint" />
            <mxPoint x="430" y="720" as="targetPoint" />
          </mxGeometry>
        </mxCell>
        <mxCell id="rDTw__-ummXogN5xWqdT-5" value="" style="rounded=1;whiteSpace=wrap;html=1;" vertex="1" parent="1">
          <mxGeometry x="120" y="580" width="120" height="60" as="geometry" />
        </mxCell>
        <mxCell id="rDTw__-ummXogN5xWqdT-6" value="Pygame Module" style="text;html=1;strokeColor=none;fillColor=none;align=center;verticalAlign=middle;whiteSpace=wrap;rounded=0;" vertex="1" parent="1">
          <mxGeometry x="150" y="595" width="60" height="30" as="geometry" />
        </mxCell>
        <mxCell id="rDTw__-ummXogN5xWqdT-15" value="Board" style="swimlane;fontStyle=1;align=center;verticalAlign=top;childLayout=stackLayout;horizontal=1;startSize=30;horizontalStack=0;resizeParent=1;resizeParentMax=0;resizeLast=0;collapsible=1;marginBottom=0;" vertex="1" parent="1">
          <mxGeometry x="350" y="240" width="160" height="200" as="geometry">
            <mxRectangle x="300" y="380" width="80" height="30" as="alternateBounds" />
          </mxGeometry>
        </mxCell>
        <mxCell id="rDTw__-ummXogN5xWqdT-16" value="Keeps track of board state&#xa;(Positions of pieces)" style="text;strokeColor=none;fillColor=none;align=left;verticalAlign=top;spacingLeft=4;spacingRight=4;overflow=hidden;rotatable=0;points=[[0,0.5],[1,0.5]];portConstraint=eastwest;" vertex="1" parent="rDTw__-ummXogN5xWqdT-15">
          <mxGeometry y="30" width="160" height="40" as="geometry" />
        </mxCell>
        <mxCell id="rDTw__-ummXogN5xWqdT-17" value="" style="line;strokeWidth=1;fillColor=none;align=left;verticalAlign=middle;spacingTop=-1;spacingLeft=3;spacingRight=3;rotatable=0;labelPosition=right;points=[];portConstraint=eastwest;strokeColor=inherit;" vertex="1" parent="rDTw__-ummXogN5xWqdT-15">
          <mxGeometry y="70" width="160" height="8" as="geometry" />
        </mxCell>
        <mxCell id="rDTw__-ummXogN5xWqdT-18" value="Set the board up" style="text;strokeColor=none;fillColor=none;align=left;verticalAlign=top;spacingLeft=4;spacingRight=4;overflow=hidden;rotatable=0;points=[[0,0.5],[1,0.5]];portConstraint=eastwest;" vertex="1" parent="rDTw__-ummXogN5xWqdT-15">
          <mxGeometry y="78" width="160" height="26" as="geometry" />
        </mxCell>
        <mxCell id="rDTw__-ummXogN5xWqdT-21" value="" style="rounded=0;whiteSpace=wrap;html=1;" vertex="1" parent="rDTw__-ummXogN5xWqdT-15">
          <mxGeometry y="104" width="160" height="96" as="geometry" />
        </mxCell>
        <mxCell id="rDTw__-ummXogN5xWqdT-19" style="text;strokeColor=none;fillColor=none;align=left;verticalAlign=top;spacingLeft=4;spacingRight=4;overflow=hidden;rotatable=0;points=[[0,0.5],[1,0.5]];portConstraint=eastwest;" vertex="1" parent="1">
          <mxGeometry x="300" y="410" width="160" height="40" as="geometry" />
        </mxCell>
        <mxCell id="rDTw__-ummXogN5xWqdT-22" value="Holds board state in a dictionary where the key is the coordinate (e.g e4) and the value is the piece that is there e.g WHITE_ROOK" style="text;html=1;strokeColor=none;fillColor=none;align=center;verticalAlign=middle;whiteSpace=wrap;rounded=0;" vertex="1" parent="1">
          <mxGeometry x="350" y="350" width="160" height="80" as="geometry" />
        </mxCell>
        <mxCell id="rDTw__-ummXogN5xWqdT-23" value="" style="rounded=0;whiteSpace=wrap;html=1;" vertex="1" parent="1">
          <mxGeometry x="350" y="440" width="160" height="80" as="geometry" />
        </mxCell>
        <mxCell id="rDTw__-ummXogN5xWqdT-24" value="Also holds second dictionary which is for the pygame.Rect objects as to where the pieces are going to get printed" style="text;html=1;strokeColor=none;fillColor=none;align=center;verticalAlign=middle;whiteSpace=wrap;rounded=0;" vertex="1" parent="1">
          <mxGeometry x="350" y="430" width="160" height="100" as="geometry" />
        </mxCell>
        <mxCell id="rDTw__-ummXogN5xWqdT-25" value="Chess" style="text;html=1;strokeColor=none;fillColor=none;align=center;verticalAlign=middle;whiteSpace=wrap;rounded=0;" vertex="1" parent="1">
          <mxGeometry x="350" y="590" width="60" height="30" as="geometry" />
        </mxCell>
        <mxCell id="rDTw__-ummXogN5xWqdT-26" value="Imported at &lt;br&gt;beginning of code" style="html=1;verticalAlign=bottom;startArrow=circle;startFill=1;endArrow=diamondThin;startSize=6;endSize=8;edgeStyle=elbowEdgeStyle;elbow=vertical;curved=0;rounded=0;exitX=-0.033;exitY=0.6;exitDx=0;exitDy=0;exitPerimeter=0;entryX=0;entryY=0.5;entryDx=0;entryDy=0;endFill=1;" edge="1" parent="1" target="rDTw__-ummXogN5xWqdT-1">
          <mxGeometry x="0.0273" y="3" width="80" relative="1" as="geometry">
            <mxPoint x="237.02999999999997" y="616" as="sourcePoint" />
            <mxPoint x="330" y="560" as="targetPoint" />
            <mxPoint as="offset" />
          </mxGeometry>
        </mxCell>
        <mxCell id="rDTw__-ummXogN5xWqdT-27" value="Set Board Front&#xa;&#xa;Sets the board with&#xa;all the pieces" style="text;strokeColor=none;fillColor=none;align=left;verticalAlign=top;spacingLeft=4;spacingRight=4;overflow=hidden;rotatable=0;points=[[0,0.5],[1,0.5]];portConstraint=eastwest;labelBorderColor=none;" vertex="1" parent="1">
          <mxGeometry x="210" y="350" width="120" height="70" as="geometry" />
        </mxCell>
        <mxCell id="rDTw__-ummXogN5xWqdT-29" value="" style="endArrow=none;html=1;edgeStyle=orthogonalEdgeStyle;rounded=0;exitX=-0.019;exitY=-0.05;exitDx=0;exitDy=0;exitPerimeter=0;entryX=0.44;entryY=-0.115;entryDx=0;entryDy=0;entryPerimeter=0;" edge="1" parent="1" source="rDTw__-ummXogN5xWqdT-16" target="rDTw__-ummXogN5xWqdT-27">
          <mxGeometry relative="1" as="geometry">
            <mxPoint x="360" y="450" as="sourcePoint" />
            <mxPoint x="520" y="450" as="targetPoint" />
          </mxGeometry>
        </mxCell>
        <mxCell id="rDTw__-ummXogN5xWqdT-30" value="class&lt;br&gt;" style="edgeLabel;resizable=0;html=1;align=left;verticalAlign=bottom;" connectable="0" vertex="1" parent="rDTw__-ummXogN5xWqdT-29">
          <mxGeometry x="-1" relative="1" as="geometry" />
        </mxCell>
        <mxCell id="rDTw__-ummXogN5xWqdT-31" value="function" style="edgeLabel;resizable=0;html=1;align=right;verticalAlign=bottom;" connectable="0" vertex="1" parent="rDTw__-ummXogN5xWqdT-29">
          <mxGeometry x="1" relative="1" as="geometry" />
        </mxCell>
        <mxCell id="rDTw__-ummXogN5xWqdT-35" value="" style="html=1;shadow=0;dashed=0;align=center;verticalAlign=middle;shape=mxgraph.arrows2.arrow;dy=0.54;dx=34;notch=0;rotation=90;" vertex="1" parent="1">
          <mxGeometry x="360" y="510" width="40" height="70" as="geometry" />
        </mxCell>
        <mxCell id="rDTw__-ummXogN5xWqdT-36" value="Primary functions" style="swimlane;fontStyle=0;childLayout=stackLayout;horizontal=1;startSize=26;fillColor=none;horizontalStack=0;resizeParent=1;resizeParentMax=0;resizeLast=0;collapsible=1;marginBottom=0;" vertex="1" parent="1">
          <mxGeometry x="560" y="250" width="150" height="104" as="geometry" />
        </mxCell>
        <mxCell id="rDTw__-ummXogN5xWqdT-42" style="edgeStyle=orthogonalEdgeStyle;rounded=0;orthogonalLoop=1;jettySize=auto;html=1;exitX=1;exitY=0.5;exitDx=0;exitDy=0;endArrow=classic;endFill=1;" edge="1" parent="rDTw__-ummXogN5xWqdT-36" source="rDTw__-ummXogN5xWqdT-37">
          <mxGeometry relative="1" as="geometry">
            <mxPoint x="200" y="-30" as="targetPoint" />
          </mxGeometry>
        </mxCell>
        <mxCell id="rDTw__-ummXogN5xWqdT-37" value="draw_board/draw_pieces" style="text;strokeColor=none;fillColor=none;align=left;verticalAlign=top;spacingLeft=4;spacingRight=4;overflow=hidden;rotatable=0;points=[[0,0.5],[1,0.5]];portConstraint=eastwest;labelBorderColor=default;" vertex="1" parent="rDTw__-ummXogN5xWqdT-36">
          <mxGeometry y="26" width="150" height="26" as="geometry" />
        </mxCell>
        <mxCell id="rDTw__-ummXogN5xWqdT-38" value="coordClicked" style="text;strokeColor=none;fillColor=none;align=left;verticalAlign=top;spacingLeft=4;spacingRight=4;overflow=hidden;rotatable=0;points=[[0,0.5],[1,0.5]];portConstraint=eastwest;labelBorderColor=default;" vertex="1" parent="rDTw__-ummXogN5xWqdT-36">
          <mxGeometry y="52" width="150" height="26" as="geometry" />
        </mxCell>
        <mxCell id="rDTw__-ummXogN5xWqdT-39" value="playerInputLogic" style="text;strokeColor=none;fillColor=none;align=left;verticalAlign=top;spacingLeft=4;spacingRight=4;overflow=hidden;rotatable=0;points=[[0,0.5],[1,0.5]];portConstraint=eastwest;labelBorderColor=default;" vertex="1" parent="rDTw__-ummXogN5xWqdT-36">
          <mxGeometry y="78" width="150" height="26" as="geometry" />
        </mxCell>
        <mxCell id="rDTw__-ummXogN5xWqdT-40" value="" style="endArrow=none;html=1;rounded=0;" edge="1" parent="1">
          <mxGeometry width="50" height="50" relative="1" as="geometry">
            <mxPoint x="210" y="380" as="sourcePoint" />
            <mxPoint x="330" y="380" as="targetPoint" />
            <Array as="points">
              <mxPoint x="270" y="380" />
            </Array>
          </mxGeometry>
        </mxCell>
        <mxCell id="rDTw__-ummXogN5xWqdT-43" value="" style="rounded=0;whiteSpace=wrap;html=1;labelBorderColor=none;" vertex="1" parent="1">
          <mxGeometry x="610" y="110" width="210" height="110" as="geometry" />
        </mxCell>
        <mxCell id="rDTw__-ummXogN5xWqdT-44" value="Pretty self-explanatory" style="text;html=1;strokeColor=none;fillColor=none;align=center;verticalAlign=middle;whiteSpace=wrap;rounded=0;" vertex="1" parent="1">
          <mxGeometry x="610" y="110" width="80" height="35" as="geometry" />
        </mxCell>
        <mxCell id="rDTw__-ummXogN5xWqdT-45" value="Draws pieces using the rectangle dictionary from Board" style="text;html=1;strokeColor=none;fillColor=none;align=center;verticalAlign=middle;whiteSpace=wrap;rounded=0;" vertex="1" parent="1">
          <mxGeometry x="680" y="120" width="130" height="110" as="geometry" />
        </mxCell>
        <mxCell id="rDTw__-ummXogN5xWqdT-48" value="" style="rounded=0;whiteSpace=wrap;html=1;labelBorderColor=default;" vertex="1" parent="1">
          <mxGeometry x="470" y="50" width="130" height="107.5" as="geometry" />
        </mxCell>
        <mxCell id="rDTw__-ummXogN5xWqdT-47" style="edgeStyle=orthogonalEdgeStyle;rounded=0;orthogonalLoop=1;jettySize=auto;html=1;exitX=0;exitY=0.5;exitDx=0;exitDy=0;endArrow=classic;endFill=1;" edge="1" parent="1" source="rDTw__-ummXogN5xWqdT-38" target="rDTw__-ummXogN5xWqdT-48">
          <mxGeometry relative="1" as="geometry">
            <mxPoint x="530" y="150" as="targetPoint" />
          </mxGeometry>
        </mxCell>
        <mxCell id="rDTw__-ummXogN5xWqdT-49" value="Grabs the board coordinate from the position of the mouse after it clicks&lt;br&gt;Return values would be like e4 or h8" style="text;html=1;strokeColor=none;fillColor=none;align=center;verticalAlign=middle;whiteSpace=wrap;rounded=0;" vertex="1" parent="1">
          <mxGeometry x="473.13" y="50" width="123.75" height="110" as="geometry" />
        </mxCell>
        <mxCell id="rDTw__-ummXogN5xWqdT-53" value="" style="rounded=0;whiteSpace=wrap;html=1;labelBorderColor=default;" vertex="1" parent="1">
          <mxGeometry x="760" y="420" width="330" height="220" as="geometry" />
        </mxCell>
        <mxCell id="rDTw__-ummXogN5xWqdT-52" style="edgeStyle=orthogonalEdgeStyle;rounded=0;orthogonalLoop=1;jettySize=auto;html=1;exitX=1;exitY=0.5;exitDx=0;exitDy=0;endArrow=classic;endFill=1;" edge="1" parent="1" source="rDTw__-ummXogN5xWqdT-39" target="rDTw__-ummXogN5xWqdT-53">
          <mxGeometry relative="1" as="geometry">
            <mxPoint x="820" y="550" as="targetPoint" />
          </mxGeometry>
        </mxCell>
        <mxCell id="rDTw__-ummXogN5xWqdT-54" value="Largest function in my code" style="text;html=1;strokeColor=none;fillColor=none;align=center;verticalAlign=middle;whiteSpace=wrap;rounded=0;" vertex="1" parent="1">
          <mxGeometry x="760" y="420" width="100" height="30" as="geometry" />
        </mxCell>
        <mxCell id="rDTw__-ummXogN5xWqdT-56" value="If player clicks on a piece and isn&#39;t holding one, grab the piece" style="text;html=1;strokeColor=none;fillColor=none;align=center;verticalAlign=middle;whiteSpace=wrap;rounded=0;" vertex="1" parent="1">
          <mxGeometry x="865" y="420" width="120" height="75" as="geometry" />
        </mxCell>
        <mxCell id="rDTw__-ummXogN5xWqdT-57" value="If a player is currently holding a piece and clicks a space, play it if the rules allow it&amp;nbsp;" style="text;html=1;strokeColor=none;fillColor=none;align=center;verticalAlign=middle;whiteSpace=wrap;rounded=0;" vertex="1" parent="1">
          <mxGeometry x="940" y="550" width="140" height="70" as="geometry" />
        </mxCell>
        <mxCell id="rDTw__-ummXogN5xWqdT-60" value="If&amp;nbsp; player clicks where they picked the piece up from put back the piece without ending their turn" style="text;html=1;strokeColor=none;fillColor=none;align=center;verticalAlign=middle;whiteSpace=wrap;rounded=0;" vertex="1" parent="1">
          <mxGeometry x="760" y="545" width="170" height="85" as="geometry" />
        </mxCell>
        <mxCell id="rDTw__-ummXogN5xWqdT-66" value="" style="endArrow=none;html=1;rounded=0;exitX=0.5;exitY=0;exitDx=0;exitDy=0;entryX=0.5;entryY=1;entryDx=0;entryDy=0;" edge="1" parent="1" source="rDTw__-ummXogN5xWqdT-60" target="rDTw__-ummXogN5xWqdT-56">
          <mxGeometry width="50" height="50" relative="1" as="geometry">
            <mxPoint x="680" y="530" as="sourcePoint" />
            <mxPoint x="730" y="480" as="targetPoint" />
          </mxGeometry>
        </mxCell>
        <mxCell id="rDTw__-ummXogN5xWqdT-67" value="" style="endArrow=none;html=1;rounded=0;exitX=0.5;exitY=1;exitDx=0;exitDy=0;entryX=0.5;entryY=0;entryDx=0;entryDy=0;" edge="1" parent="1" source="rDTw__-ummXogN5xWqdT-56" target="rDTw__-ummXogN5xWqdT-57">
          <mxGeometry width="50" height="50" relative="1" as="geometry">
            <mxPoint x="680" y="530" as="sourcePoint" />
            <mxPoint x="730" y="480" as="targetPoint" />
          </mxGeometry>
        </mxCell>
        <mxCell id="rDTw__-ummXogN5xWqdT-68" value="" style="html=1;verticalAlign=bottom;startArrow=oval;startFill=1;endArrow=block;startSize=8;edgeStyle=elbowEdgeStyle;elbow=vertical;curved=0;rounded=0;exitX=0.533;exitY=1.038;exitDx=0;exitDy=0;exitPerimeter=0;entryX=1;entryY=0.5;entryDx=0;entryDy=0;" edge="1" parent="1" source="rDTw__-ummXogN5xWqdT-39" target="rDTw__-ummXogN5xWqdT-1">
          <mxGeometry width="60" relative="1" as="geometry">
            <mxPoint x="680" y="400" as="sourcePoint" />
            <mxPoint x="740" y="400" as="targetPoint" />
            <Array as="points">
              <mxPoint x="540" y="610" />
              <mxPoint x="500" y="540" />
              <mxPoint x="500" y="510" />
              <mxPoint x="530" y="510" />
            </Array>
          </mxGeometry>
        </mxCell>
      </root>
    </mxGraphModel>
  </diagram>
</mxfile>
